<?xml version="1.0" encoding="UTF-8" standalone="no"?>
<svg
   xmlns:dc="http://purl.org/dc/elements/1.1/"
   xmlns:cc="http://creativecommons.org/ns#"
   xmlns:rdf="http://www.w3.org/1999/02/22-rdf-syntax-ns#"
   xmlns:svg="http://www.w3.org/2000/svg"
   xmlns="http://www.w3.org/2000/svg"
   id="svg830"
   version="1.1"
   viewBox="0 0 42.333332 42.333335"
   height="160"
   width="160">
  <defs
     id="defs824" />
  <metadata
     id="metadata827">
    <rdf:RDF>
      <cc:Work
         rdf:about="">
        <dc:format>image/svg+xml</dc:format>
        <dc:type
           rdf:resource="http://purl.org/dc/dcmitype/StillImage" />
        <dc:title></dc:title>
      </cc:Work>
    </rdf:RDF>
  </metadata>
  <g
     transform="translate(0,-254.66665)"
     id="layer1">
    <g
       id="flowRoot1375"
       style="font-style:normal;font-weight:normal;font-size:40px;line-height:1.25;font-family:sans-serif;letter-spacing:0px;word-spacing:0px;opacity:1;fill:#000000;fill-opacity:1;stroke:none"
       transform="matrix(0.26458333,0,0,0.26458333,6.2739305,260.98626)"
       aria-label="PP">
      <path
         id="path1387"
         style="font-style:normal;font-variant:normal;font-weight:normal;font-stretch:normal;font-size:96px;font-family:'Nexa Light';-inkscape-font-specification:'Nexa Light, Normal';font-variant-ligatures:normal;font-variant-caps:normal;font-variant-numeric:normal;font-feature-settings:normal;text-align:start;letter-spacing:-31.03000069px;word-spacing:0px;writing-mode:lr-tb;text-anchor:start;fill:#000000;stroke:none"
         d="m 44.188266,27.314844 c 22.368,0 22.368,34.464 0,34.464 h -24.288 v -34.464 z m 0,39.168 c 29.184,0 29.184,-43.968 0,-43.968 -9.792,0 -19.68,0 -29.472,0 v 67.2 h 5.184 v -23.232 z" />
      <path
         id="path1389"
         style="font-style:normal;font-variant:normal;font-weight:normal;font-stretch:normal;font-size:96px;font-family:'Nexa Light';-inkscape-font-specification:'Nexa Light, Normal';font-variant-ligatures:normal;font-variant-caps:normal;font-variant-numeric:normal;font-feature-settings:normal;text-align:start;letter-spacing:-31.03000069px;word-spacing:0px;writing-mode:lr-tb;text-anchor:start;fill:#000000;stroke:none"
         d="m 75.970765,27.314844 c 22.368,0 22.368,34.464 0,34.464 h -24.288 v -34.464 z m 0,39.168 c 29.183995,0 29.183995,-43.968 0,-43.968 -9.792,0 -19.68,0 -29.472,0 v 67.2 h 5.184 v -23.232 z" />
    </g>
  </g>
</svg>
