<?xml version="1.0" encoding="UTF-8" standalone="no"?>
<!-- Created with Inkscape (http://www.inkscape.org/) -->

<svg
   xmlns:dc="http://purl.org/dc/elements/1.1/"
   xmlns:cc="http://creativecommons.org/ns#"
   xmlns:rdf="http://www.w3.org/1999/02/22-rdf-syntax-ns#"
   xmlns:svg="http://www.w3.org/2000/svg"
   xmlns="http://www.w3.org/2000/svg"
   xmlns:sodipodi="http://sodipodi.sourceforge.net/DTD/sodipodi-0.dtd"
   xmlns:inkscape="http://www.inkscape.org/namespaces/inkscape"
   version="1.1"
   id="svg13774"
   width="192.07472"
   height="85.19014"
   viewBox="0 0 192.07471 85.190143"
   sodipodi:docname="logo.svg"
   inkscape:version="0.92.2 (5c3e80d, 2017-08-06)">
  <metadata
     id="metadata13780">
    <rdf:RDF>
      <cc:Work
         rdf:about="">
        <dc:format>image/svg+xml</dc:format>
        <dc:type
           rdf:resource="http://purl.org/dc/dcmitype/StillImage" />
        <dc:title></dc:title>
      </cc:Work>
    </rdf:RDF>
  </metadata>
  <defs
     id="defs13778" />
  <sodipodi:namedview
     pagecolor="#ffffff"
     bordercolor="#666666"
     borderopacity="1"
     objecttolerance="10"
     gridtolerance="10"
     guidetolerance="10"
     inkscape:pageopacity="0"
     inkscape:pageshadow="2"
     inkscape:window-width="1920"
     inkscape:window-height="1004"
     id="namedview13776"
     showgrid="false"
     inkscape:zoom="3.9763713"
     inkscape:cx="104.98181"
     inkscape:cy="40.648221"
     inkscape:window-x="-7"
     inkscape:window-y="-7"
     inkscape:window-maximized="1"
     inkscape:current-layer="svg13774"
     fit-margin-top="0"
     fit-margin-left="0"
     fit-margin-right="0"
     fit-margin-bottom="0"
     inkscape:snap-intersection-paths="true" />
  <path
     inkscape:connector-curvature="0"
     id="path14378"
     d="m 2.7696343,85.163853 c -0.665675,-0.08338 -1.168843,-0.378966 -1.484674,-0.872151 -0.11278,-0.17611 -0.33018097,-0.417272 -0.48311697,-0.535904 -0.315252,-0.244564 -0.534066,-0.539209 -0.63244,-0.851642 -0.03698,-0.11741 -0.09084,-0.244669 -0.119703,-0.28282 -0.07286,-0.09625 -0.06282,-1.018202 0.01187,-1.092909 0.03291,-0.03289 0.05983,-0.105526 0.05983,-0.161368 0,-0.185854 0.318271,-1.054776 0.592606,-1.617897 C 1.2832843,78.580624 2.0794533,77.374064 4.7595583,73.618305 12.680378,62.518472 18.344481,56.860019 25.236288,53.162023 c 4.822286,-2.587538 10.693249,-4.228672 17.605378,-4.921305 1.858609,-0.186242 1.943252,-0.266746 0.42028,-0.399737 -2.02591,-0.176906 -4.04211,-0.479775 -5.862657,-0.880668 l -0.97494,-0.214688 -0.687131,0.186856 c -1.769269,0.481127 -3.19198,0.709555 -5.196641,0.834364 -2.068416,0.12878 -4.665848,-0.07999 -6.453116,-0.518663 -1.928119,-0.473247 -4.644888,-1.748419 -5.474404,-2.569523 -0.117406,-0.116216 -0.465625,-0.492933 -0.773819,-0.837146 -0.308195,-0.344214 -0.752995,-0.833694 -0.988446,-1.087734 -2.209499,-2.383948 -3.102926,-5.079075 -2.797923,-8.440258 0.264526,-2.915074 1.304869,-5.277837 3.169072,-7.197387 1.070861,-1.102658 2.281428,-1.958305 3.899365,-2.756137 1.141347,-0.562816 1.812047,-0.82466 2.66835,-1.041731 1.884606,-0.477744 4.154011,-0.406348 5.985539,0.188309 1.181968,0.38376 2.387652,1.097749 3.220264,1.906998 0.693113,0.673664 1.598324,1.701557 1.906957,2.165404 0.700315,1.052507 1.028226,2.211994 1.028226,3.635773 0,0.668787 -0.01098,0.751719 -0.13169,0.993937 -0.234954,0.471491 -0.769508,0.699644 -1.297915,0.553964 -0.199838,-0.0551 -0.317181,-0.140783 -0.571655,-0.41744 -1.632797,-1.775125 -2.516226,-2.481951 -3.68161,-2.945642 -0.77475,-0.308264 -1.297263,-0.382737 -2.482276,-0.3538 -1.092766,0.02669 -1.642946,0.121412 -2.401514,0.413481 -1.52226,0.586106 -3.103732,1.93071 -3.953828,3.361633 -1.212291,2.040588 -1.338164,4.888509 -0.292167,6.610403 0.698594,1.150009 2.924625,2.096783 5.178912,2.202693 0.531843,0.02498 0.523211,-0.04945 -0.08003,-0.690188 -0.859812,-0.913256 -1.472596,-1.80298 -1.993596,-2.894581 -1.110538,-2.326809 -1.095299,-3.97362 0.05455,-5.894091 0.367466,-0.613742 1.025378,-1.405702 1.400496,-1.685844 0.566928,-0.423389 1.795445,-0.905414 2.307588,-0.905414 0.466031,0 0.939142,0.352004 1.057041,0.786462 0.04601,0.169535 0.101261,0.22516 0.354598,0.35699 0.54157,0.28182 0.691834,0.691898 0.554632,1.513623 -0.09611,0.575636 -0.08268,1.690343 0.02811,2.332737 0.243373,1.41114 0.995116,2.909034 1.827098,3.640605 0.83228,0.731829 2.073314,1.572394 2.252392,1.525565 0.154037,-0.04028 1.429537,-1.014476 2.070865,-1.581674 1.712995,-1.514993 3.375464,-3.495704 4.739552,-5.646835 1.266219,-1.996796 2.563773,-4.24075 4.238671,-7.330249 1.33429,-2.461204 1.350943,-2.491463 2.795481,-5.078883 0.576315,-1.032274 1.047848,-1.914831 1.047848,-1.961237 0,-0.117087 -0.04544,-0.109045 -0.546393,0.09674 -2.870997,1.179361 -6.365781,1.354124 -9.076382,0.453884 -0.553807,-0.183925 -1.479238,-0.668027 -1.957862,-1.02417 C 37.122067,17.461772 36.737826,17.111365 36.517687,16.868736 36.297548,16.626107 35.943668,16.248058 35.73129,16.02863 35.048153,15.322819 34.545329,14.522929 34.267561,13.700139 34.129102,13.290003 34.09672,13.098963 34.0754,12.566477 c -0.03154,-0.787456 0.06103,-1.942067 0.199933,-2.494038 0.305617,-1.2144479 0.992518,-2.3280159 2.132059,-3.4563789 1.824034,-1.806143 4.950064,-3.600866 8.139206,-4.6729 2.744847,-0.922683 6.485589,-1.59458697 9.929078,-1.78343797 0.557685,-0.03059 1.302156,-0.07956 1.654384,-0.108831 0.814585,-0.067692 1.929598,-0.067878 2.61498,-4.17e-4 0.293519,0.02889 1.001962,0.0785 1.574324,0.110257 4.174651,0.231586 8.973318,1.30495897 12.327771,2.75749297 1.675541,0.725535 3.181914,1.679982 4.164331,2.638545 0.659413,0.643393 1.696452,1.811946 2.009382,2.264195 0.80317,1.160739 1.19093,2.4029289 1.19093,3.8150989 0,1.730557 -0.6884,3.342643 -2.15644,5.049945 -1.953024,2.271312 -5.666056,4.744602 -9.290782,6.188675 -0.146755,0.05847 -0.26683,0.139624 -0.26683,0.180347 0,0.04072 0.298923,0.274794 0.664289,0.520156 1.073104,0.720658 1.523716,1.094725 2.489576,2.0667 1.896858,1.908851 2.743721,3.103385 3.253413,4.58906 0.222556,0.648749 0.231944,0.651966 0.618484,0.212116 0.600356,-0.683133 2.35989,-2.396166 2.92719,-2.849819 1.61752,-1.293496 3.3328,-2.157565 4.98981,-2.513595 0.66944,-0.143838 2.13431,-0.200743 2.81969,-0.109537 1.41502,0.188306 2.62076,0.712756 3.3576,1.460426 0.67639,0.686346 1.39876,1.513689 1.61932,1.854653 0.62217,0.961779 0.87254,1.980243 0.87446,3.557374 0.003,1.33575 -0.16455,2.396948 -0.5942,3.794219 -0.12,0.39025 -0.20162,0.726101 -0.18137,0.74634 0.0604,0.06045 0.18038,-0.132995 1.31294,-2.117491 0.59639,-1.045003 1.42118,-2.463748 1.83288,-3.152767 1.24374,-2.08154 2.9262,-4.525474 3.36034,-4.881221 0.28575,-0.234154 0.82533,-0.48946 1.20516,-0.570245 0.43111,-0.09169 0.45596,-0.127567 0.34726,-0.501512 -0.12428,-0.427494 -0.0841,-1.345822 0.0817,-1.866646 0.35928,-1.128723 1.425562,-2.750029 2.509472,-3.81574 1.24747,-1.226525 2.51586,-1.814479 3.91435,-1.814479 0.89804,0 1.49808,0.288138 1.90223,0.913429 0.11419,0.176692 0.30046,0.388502 0.41391,0.470689 0.31197,0.225988 0.58645,0.574836 0.7132,0.906428 0.1569,0.410495 0.19369,1.188342 0.0792,1.675265 -0.047,0.199946 -0.0855,0.397667 -0.0855,0.439378 0,0.04172 0.12608,0.13942 0.28019,0.21713 0.39069,0.197018 0.64112,0.405747 0.87569,0.729834 0.11067,0.152936 0.38535,0.458179 0.6104,0.678317 0.58758,0.574764 0.85651,1.169522 1.00654,2.22606 0.093,0.654736 0.0902,0.648169 0.28287,0.676781 0.0952,0.01414 0.3492,0.05179 0.56454,0.08366 0.64343,0.09524 0.96575,0.323329 1.1542,0.816773 0.0742,0.194142 0.13337,0.253344 0.36381,0.36363 0.37616,0.180021 0.57139,0.464131 0.60976,0.887327 0.0372,0.410197 -0.0621,0.716848 -0.41154,1.270152 -0.49063,0.776961 -0.78012,1.647669 -0.83381,2.507856 -0.0297,0.475686 -0.0239,0.505616 0.60992,3.113711 0.35193,1.448373 0.66598,2.659504 0.69788,2.691398 0.0665,0.06652 0.038,0.08788 1.56647,-1.171757 1.0754,-0.886248 1.24835,-1.002127 1.73152,-1.160151 l 0.27619,-0.09033 1.3186,-2.225105 c 3.71411,-6.267478 4.30106,-7.187649 5.1062,-8.00512 0.73503,-0.746297 1.79449,-1.007722 3.17591,-0.783676 0.85769,0.139104 1.47266,0.457911 1.75968,0.912234 0.0815,0.128987 0.18723,0.234564 0.23499,0.234615 0.0478,5.3e-5 0.35994,-0.129962 0.69377,-0.288921 0.6736,-0.320754 1.36015,-0.559857 2.03102,-0.70731 0.33849,-0.0744 0.67162,-0.09756 1.40436,-0.09762 0.8578,-5.2e-5 1.00346,0.01329 1.36086,0.124849 0.8236,0.257059 1.03742,0.419537 2.21362,1.682148 0.26354,0.282914 0.49997,0.514389 0.52535,0.514389 0.0254,0 0.24205,-0.140751 0.48143,-0.31278 1.43137,-1.028639 2.84398,-1.687321 4.26889,-1.990537 0.77775,-0.165503 2.11789,-0.165556 2.73049,-1.07e-4 0.71853,0.194054 1.17265,0.450865 1.62769,0.920485 0.22014,0.22719 0.60567,0.62529 0.85674,0.884666 0.52018,0.537424 0.79147,0.955103 1.01096,1.556524 0.428,1.172756 0.47114,2.506575 0.13061,4.037939 -0.2043,0.918757 -0.16108,1.00514 0.19377,0.387272 1.20839,-2.103976 2.33113,-3.871634 3.46797,-5.459994 0.59831,-0.835955 0.83753,-1.092571 1.23099,-1.320465 0.26312,-0.152407 0.85745,-0.357375 1.03623,-0.357375 0.20295,0 0.24335,-0.109136 0.14924,-0.403197 -0.12578,-0.392978 -0.11199,-1.227211 0.029,-1.753534 0.15711,-0.586587 0.55191,-1.383417 1.05996,-2.139311 1.41762,-2.109208 2.92727,-3.281819 4.64288,-3.606355 0.19016,-0.03598 0.58098,-0.05281 0.91045,-0.03924 0.50486,0.02081 0.62141,0.04443 0.92902,0.188385 0.39077,0.182856 0.72963,0.489496 0.89142,0.806658 0.0593,0.116102 0.22591,0.294697 0.37495,0.401779 0.32245,0.231654 0.54578,0.527615 0.7045,0.933553 0.16994,0.434656 0.17104,1.307428 0.004,1.902256 -0.41309,1.457182 -1.95079,3.591565 -3.34168,4.63838 -0.45953,0.345852 -1.12472,0.710447 -1.61809,0.886867 -0.36532,0.130633 -0.37971,0.159147 -0.25503,0.505223 0.13358,0.370805 0.10324,0.83117 -0.0864,1.311161 -0.0924,0.233861 -0.15284,0.440386 -0.1343,0.45894 0.0186,0.01855 0.30495,-0.228038 0.63642,-0.547981 2.62476,-2.533491 4.77462,-3.867633 6.78406,-4.209976 1.77137,-0.301785 3.64069,0.228811 4.77112,1.354258 0.66477,0.661836 1.47831,1.60479 1.70277,1.973634 0.27523,0.452296 0.51088,1.016892 0.64071,1.535128 0.13123,0.523871 0.12878,1.857991 -0.004,2.474244 -0.55863,2.582064 -2.39108,5.04609 -4.86231,6.538154 -1.16803,0.705227 -2.67378,1.202739 -4.10925,1.357731 -0.29352,0.03169 -0.61774,0.07239 -0.72045,0.09043 l -0.18679,0.03281 0.18679,0.07959 c 0.2531,0.107858 1.38465,0.05661 2.10654,-0.09539 1.3639,-0.287201 3.00477,-0.969108 4.58622,-1.905908 0.49847,-0.29528 0.69135,-0.452377 1.22275,-0.995932 1.56452,-1.600276 3.29377,-3.555598 3.73292,-4.220937 0.66079,-1.001167 1.35975,-2.685111 1.99033,-4.79519 0.31284,-1.046915 0.37294,-1.317926 0.53244,-2.4014 0.0741,-0.503356 0.15956,-0.973939 0.18993,-1.04574 0.0303,-0.0718 0.11387,-0.420022 0.18557,-0.773823 0.11573,-0.570979 0.15763,-0.6833 0.37287,-0.999462 0.51059,-0.749999 1.21531,-1.111406 2.16722,-1.111406 0.70329,0 1.31033,0.298859 1.72057,0.847062 0.11989,0.160209 0.413,0.485444 0.65138,0.722747 0.32722,0.325744 0.48588,0.536056 0.64756,0.858389 0.2947,0.587551 0.44119,1.090203 0.4779,1.639843 0.0222,0.33223 0.0556,0.486618 0.11668,0.53849 0.047,0.04 0.42178,0.219026 0.83271,0.397843 0.55483,0.241434 1.02145,0.394532 1.81293,0.594807 1.22629,0.310307 1.48204,0.444501 1.88165,0.987339 0.12791,0.173752 0.40856,0.485952 0.62366,0.69378 0.39894,0.385442 0.55384,0.627723 0.73151,1.144129 0.31042,0.902237 0.068,1.48531 -2.34382,5.637771 -1.36237,2.345623 -2.23693,4.012585 -2.15047,4.099027 0.0422,0.04218 0.18012,0.02648 0.49857,-0.05676 1.69463,-0.442998 2.89827,-0.148924 3.65989,0.894181 0.075,0.102732 0.32037,0.366899 0.54526,0.587038 0.63659,0.623186 0.96127,1.381835 1.12253,2.622979 0.10241,0.788103 0.11769,1.219384 0.0564,1.593012 -0.0312,0.190787 -0.0833,0.635067 -0.11582,0.987289 -0.0711,0.773091 -0.12484,1.017781 -0.47985,2.188045 -2.25485,7.432991 -7.2465,14.611114 -13.84753,19.913077 -6.25087,5.020745 -14.65616,8.311621 -25.32263,9.914449 -3.95598,0.594467 -7.80253,0.932472 -13.235,1.162998 -2.14293,0.09093 -12.435,0.09063 -15.50311,-5.1e-4 -3.8453,-0.114146 -9.559,-0.271926 -11.98089,-0.330829 C 105.6889,79.532667 100.80541,79.243052 88.605948,78.314452 74.726011,77.257921 68.742914,76.870506 61.842443,76.58145 54.222344,76.262229 46.633778,76.223527 40.949262,76.474894 c -11.598524,0.512876 -20.799889,2.089427 -27.69927,4.74593 -1.588026,0.611461 -2.423547,0.985082 -4.3742827,1.956102 -1.012638,0.504063 -2.134735,1.039926 -2.493549,1.190821 -1.566036,0.658547 -2.704414,0.909548 -3.610413,0.796044 z m 0.296815,-2.15481 c 0.978064,-0.205165 1.989408,-0.624138 4.446289,-1.841973 0.997963,-0.494686 2.234741,-1.078177 2.7483977,-1.296659 7.392471,-3.144379 17.139185,-4.937055 29.778774,-5.477098 5.074998,-0.216837 11.928575,-0.217048 18.171456,-5.91e-4 7.733248,0.268174 13.758303,0.641852 29.245092,1.813824 7.81655,0.591519 11.02829,0.817258 14.409092,1.012703 3.88313,0.2245 5.08887,0.270329 12.00758,0.456532 1.6437,0.04423 4.23732,0.115733 5.76363,0.158849 12.54361,0.354456 20.08657,0.212285 27.08374,-0.510478 9.07368,-0.937275 16.37861,-2.864678 22.44081,-5.921051 3.41633,-1.722401 5.98732,-3.489505 8.84227,-6.077544 4.32886,-3.924123 7.81095,-8.709417 10.06206,-13.827887 0.81933,-1.862958 1.68951,-4.468708 1.83564,-5.496798 0.11125,-0.782713 0.0964,-2.858699 -0.0239,-3.335437 -0.19668,-0.779562 -0.51763,-1.250774 -1.01508,-1.490278 -0.74087,-0.356715 -1.69059,-0.187965 -3.71134,0.659455 -0.91153,0.382264 -1.26987,0.472732 -1.49805,0.378217 -0.95035,-0.393649 -0.0866,-2.752568 2.85349,-7.792591 1.73128,-2.967864 2.32087,-4.161853 2.2338,-4.523617 -0.0661,-0.274696 -0.27835,-0.633007 -0.48609,-0.820687 -0.18742,-0.169319 -0.30586,-0.212184 -1.21469,-0.439587 -0.77128,-0.192985 -1.21399,-0.34051 -1.89114,-0.630172 -1.38837,-0.59392 -1.47411,-0.621882 -1.71188,-0.558416 -0.17672,0.04717 -0.25071,0.0347 -0.55065,-0.09277 -0.55937,-0.237741 -0.53337,-0.159178 -0.34654,-1.04653 0.1505,-0.714753 0.15864,-0.806907 0.10672,-1.207257 -0.12855,-0.991334 -0.63803,-1.818208 -1.21168,-1.966555 -0.52576,-0.135963 -1.05243,0.03292 -1.43722,0.460898 -0.20157,0.224216 -0.24895,0.322746 -0.32397,0.673916 -0.0482,0.226218 -0.13324,0.591417 -0.18867,0.811556 -0.0555,0.220139 -0.15054,0.736465 -0.21133,1.147392 -0.14704,0.993797 -0.25857,1.483862 -0.57685,2.53493 -0.62132,2.051647 -1.35366,3.814522 -2.05389,4.944003 -0.3161,0.509895 -1.40844,1.782859 -2.94723,3.434614 -1.64408,1.764765 -1.84371,1.920525 -3.62652,2.82945 -2.77705,1.415812 -5.05152,1.841293 -7.09782,1.327773 -1.6432,-0.412366 -2.51676,-1.520055 -2.54962,-3.232981 -0.005,-0.298841 0.004,-0.557643 0.0214,-0.575116 0.0175,-0.01747 0.15423,0.05063 0.30391,0.151362 0.69236,0.465933 1.788,0.615443 3.17636,0.433445 1.45242,-0.190396 2.68135,-0.652547 3.88356,-1.460469 1.81381,-1.218903 3.20175,-3.017023 3.77532,-4.891036 0.22113,-0.722495 0.28306,-1.115953 0.28055,-1.782579 -0.007,-1.845199 -1.12372,-3.32163 -2.91433,-3.852813 -0.53885,-0.159854 -1.60371,-0.195963 -2.24139,-0.07601 -0.92888,0.17473 -1.99857,0.654931 -3.04192,1.365541 -1.28113,0.872554 -3.00162,2.408238 -3.92437,3.502828 -1.80477,2.140897 -3.23694,4.882273 -3.63314,6.954368 -0.0664,0.347353 -0.15426,0.65178 -0.20238,0.701413 -0.0929,0.09575 -3.34466,1.92907 -4.03422,2.274436 -0.70075,0.350973 -1.33254,0.553339 -1.81447,0.581184 -0.58064,0.03355 -0.60911,0.0054 -0.40427,-0.400426 0.26297,-0.520953 1.1237,-1.966175 2.92494,-4.91121 3.80474,-6.220775 4.9324,-8.183119 4.9434,-8.60245 0.006,-0.247574 -0.12855,-0.448293 -0.39204,-0.582719 -0.76159,-0.388533 -2.15974,-0.350144 -2.78393,0.07644 -0.29175,0.199387 -1.71691,2.22359 -2.82527,4.012845 -0.50597,0.8168 -3.55051,6.102273 -4.04209,7.017269 -0.23778,0.4426 -0.29835,0.518146 -0.43783,0.54604 -0.089,0.01781 -0.59932,0.29319 -1.134,0.611969 -1.21087,0.721915 -1.90703,1.104959 -3.01133,1.656856 -0.9423,0.470939 -1.23676,0.569159 -1.38387,0.461589 -0.0815,-0.05959 -0.0834,-0.08631 -0.018,-0.2474 0.14626,-0.360286 0.5592,-1.004324 1.38184,-2.155177 1.82661,-2.555365 2.49219,-3.602867 3.15355,-4.963127 0.85606,-1.760724 1.22794,-3.118037 1.22646,-4.476477 -0.004,-2.228543 -0.9721,-3.430685 -2.85444,-3.538705 -2.12533,-0.121965 -4.62303,1.060866 -7.10574,3.36506 -0.20984,0.194744 -0.39596,0.354078 -0.4136,0.354078 -0.0176,0 -0.0321,-0.114072 -0.0323,-0.253492 -5.1e-4,-0.579998 -0.21459,-1.520004 -0.45383,-1.992573 -0.28801,-0.568889 -0.87703,-1.083536 -1.43251,-1.251641 -0.95993,-0.2905 -2.2826,-0.15113 -3.63422,0.382934 -0.87161,0.344402 -1.82239,0.903438 -2.81513,1.655243 -0.292,0.22114 -0.54143,0.391558 -0.55429,0.378705 -0.0128,-0.01286 0.10744,-0.276194 0.26733,-0.585197 0.72659,-1.404304 0.58095,-1.806161 -0.73135,-2.017857 -1.01414,-0.163598 -1.78387,0.02947 -2.27948,0.571728 -0.56178,0.614685 -1.48662,2.017481 -2.85562,4.331451 -0.44017,0.743996 -1.43751,2.425056 -2.21631,3.735689 l -1.41595,2.38297 -0.31846,0.0333 c -0.17515,0.01832 -0.3805,0.05823 -0.45633,0.0887 -0.0758,0.03046 -0.50812,0.361568 -0.96061,0.735781 -2.38637,1.973519 -4.45628,3.545016 -4.66934,3.545016 -0.0511,0 -0.0495,-0.06221 0.007,-0.280177 0.12882,-0.49435 0.2904,-1.60265 0.29042,-1.991992 2e-5,-0.928391 -0.10595,-1.518215 -0.75631,-4.209465 l -0.64423,-2.665895 0.0272,-0.722907 c 0.0202,-0.537248 0.0625,-0.857738 0.16471,-1.247891 0.14978,-0.571717 0.5437,-1.448098 0.85307,-1.897826 0.191,-0.277682 0.24766,-0.500514 0.1436,-0.564821 -0.0285,-0.01762 -0.25066,-0.05492 -0.49364,-0.08285 -0.98401,-0.113136 -1.98806,-0.479493 -2.34638,-0.856157 -0.22424,-0.235736 -0.24416,-0.347113 -0.12333,-0.689608 0.11418,-0.323625 0.10304,-1.067103 -0.0233,-1.561469 -0.23014,-0.899847 -0.63393,-1.355055 -1.28914,-1.45331 -0.30632,-0.04594 -0.59853,0.03196 -0.92096,0.245542 -0.46163,0.305775 -0.47831,0.346858 -0.83327,2.05169 -0.50796,2.439751 -0.58525,2.78452 -0.781,3.48404 -0.46191,1.650696 -1.23941,3.426025 -2.12827,4.859746 -0.44044,0.710421 -3.08372,3.701764 -4.464432,5.052302 -0.68499,0.670027 -0.74975,0.718262 -1.63544,1.218035 -1.72338,0.97247 -2.52347,1.30627 -3.24161,1.352406 -0.66514,0.04273 -0.66543,0.05458 0.0292,-1.154991 0.32355,-0.563507 1.54487,-2.590312 2.71401,-4.504014 3.250422,-5.320377 4.573832,-7.598054 4.709522,-8.1054 0.0575,-0.215114 0.0532,-0.263196 -0.0382,-0.423349 -0.12289,-0.215417 -0.55314,-0.44762 -0.97646,-0.527012 -0.43604,-0.08177 -1.225682,-0.06613 -1.557362,0.03085 -0.53857,0.157484 -0.73048,0.327475 -1.35464,1.199838 -0.77814,1.087596 -1.61118,2.348541 -2.25731,3.416796 -0.54504,0.901117 -3.52826,6.090253 -3.86037,6.714907 l -0.18219,0.342653 -0.93392,0.477483 c -0.51366,0.262613 -1.11403,0.5988 -1.33417,0.747081 -0.51825,0.349079 -1.15486,0.643992 -1.64166,0.760507 -0.51059,0.122211 -1.51013,0.07279 -1.50605,-0.07445 5.1e-4,-0.01886 0.18123,-0.262458 0.40157,-0.541301 1.76561,-2.234522 2.95616,-4.650272 3.37964,-6.857657 0.37761,-1.968235 0.25312,-3.643843 -0.35688,-4.803029 -0.26912,-0.511453 -0.97289,-1.215665 -1.47738,-1.478347 -0.50362,-0.262218 -1.07998,-0.449517 -1.68551,-0.547719 -0.65711,-0.106568 -1.81442,-0.105081 -2.45437,0.0032 -1.49439,0.25275 -3.21758,1.085745 -4.71829,2.28084 -1.618828,1.28916 -3.45543,3.298889 -4.649783,5.088088 -1.164002,1.743734 -1.920761,3.574261 -2.18683,5.289771 -0.124521,0.802832 -0.126044,2.051881 -0.0032,2.585348 0.317561,1.378588 1.089248,2.308405 2.444175,2.945037 0.959243,0.450711 1.762617,0.594679 3.054908,0.547457 1.62743,-0.05947 3.03197,-0.479109 4.68223,-1.398929 l 0.6395,-0.356449 0.43731,0.09286 c 0.67004,0.14229 2.60809,0.172707 3.37528,0.05298 0.66021,-0.103035 1.41015,-0.326582 1.99264,-0.593988 0.21694,-0.09958 0.4124,-0.181067 0.43434,-0.181067 0.022,0 0.038,0.236523 0.0357,0.525605 -0.005,0.471742 0.0109,0.556787 0.1446,0.829908 0.28457,0.581625 0.61445,0.694037 2.03292,0.692735 1.50666,-0.0014 2.69646,-0.252205 4.35778,-0.918669 1.43043,-0.573842 3.74961,-1.900619 4.689562,-2.682839 0.17937,-0.14928 0.33869,-0.258856 0.35406,-0.243497 0.0154,0.01535 -5.4e-4,0.246601 -0.0353,0.513876 -0.0689,0.53071 -0.0397,0.884931 0.10913,1.317315 0.43217,1.256158 1.87791,2.301277 3.7597,2.717858 1.43429,0.317518 4.56289,0.0104 6.56414,-0.644339 0.59976,-0.196224 2.86636,-1.3805 3.94717,-2.062358 0.17503,-0.110417 0.32804,-0.190947 0.34003,-0.178954 0.012,0.012 -0.0879,0.209009 -0.22202,0.437808 -0.4233,0.722187 -0.56374,1.177838 -0.45995,1.492298 0.0878,0.266268 0.23184,0.331135 0.88155,0.397188 0.81852,0.08321 1.5248,0.04154 1.87631,-0.110743 0.55294,-0.239519 1.38609,-1.281388 2.24458,-2.806918 0.26329,-0.46783 0.74214,-1.270865 1.06414,-1.784523 0.322,-0.513656 0.91696,-1.498276 1.32213,-2.188046 0.40517,-0.689767 0.85058,-1.422229 0.98978,-1.627693 0.13924,-0.205462 0.41312,-0.636854 0.60867,-0.958651 0.91285,-1.502233 1.83207,-2.571725 3.17753,-3.69706 1.48124,-1.238883 2.7235,-1.881744 3.6363,-1.881744 0.58129,0 0.97134,0.226961 1.2381,0.720454 0.10127,0.187302 0.11511,0.295242 0.11288,0.880556 -0.005,0.820276 -0.0765,1.115549 -0.6653,2.676948 -0.41346,1.096436 -0.4472,1.162565 -1.29849,2.546455 -2.13068,3.463678 -3.95413,6.58196 -4.14108,7.081627 -0.0604,0.161471 -0.10984,0.414603 -0.10984,0.56252 0,0.399319 0.16516,0.544896 0.7102,0.625959 1.1883,0.176739 2.12717,-0.01643 2.7045,-0.55644 0.43725,-0.409009 0.99453,-1.297094 3.09483,-4.932021 1.09391,-1.893195 2.16926,-3.706337 2.38968,-4.029209 1.00426,-1.471162 1.8642,-2.517611 2.87408,-3.497474 0.76143,-0.738786 1.42042,-1.236758 2.07263,-1.566193 0.69561,-0.351354 1.05885,-0.465531 1.57713,-0.495751 0.42058,-0.02453 0.47501,-0.01544 0.74714,0.12482 0.25122,0.129475 0.31658,0.196858 0.45363,0.467697 0.15047,0.2974 0.16008,0.353562 0.15993,0.933923 0,0.878717 -0.11077,1.281495 -0.63823,2.325236 -0.67474,1.335155 -1.58292,2.722924 -3.33529,5.096547 -0.40089,0.543008 -0.86261,1.179409 -1.02604,1.414224 -1.03507,1.487223 -1.75213,2.954701 -1.7509,3.583291 0.002,0.498705 0.3385,0.934902 0.85556,1.105711 0.60533,0.199963 1.72834,0.170046 3.03993,-0.08097 0.41667,-0.07975 0.78613,-0.203567 1.44091,-0.4829 1.0724,-0.457494 2.21704,-0.97444 3.27662,-1.479803 0.4373,-0.208562 0.80031,-0.372752 0.80671,-0.36487 0.006,0.0078 -0.0133,0.193325 -0.0436,0.412095 -0.11057,0.796641 0.11208,1.398334 0.60884,1.645326 0.73314,0.364515 2.77516,0.262331 4.45914,-0.223136 1.54653,-0.445846 3.60248,-1.441561 5.26691,-2.550828 0.25991,-0.173218 0.49484,-0.30752 0.52203,-0.29845 0.0273,0.0091 0.11725,0.212218 0.2001,0.451434 0.57079,1.648417 1.75186,2.583281 3.77516,2.98821 0.58388,0.116853 2.47153,0.132441 3.32871,0.02749 2.64134,-0.323409 5.02855,-1.053915 7.51575,-2.299882 2.08102,-1.042497 2.99841,-1.749316 4.85446,-3.740199 0.84042,-0.90147 1.65281,-1.885361 2.09947,-2.54272 0.3524,-0.518639 1.56455,-2.759361 2.55796,-4.728531 0.41091,-0.814514 0.76575,-1.480934 0.78856,-1.480934 0.0228,0 0.42758,0.119297 0.89949,0.265102 1.02535,0.316803 1.79619,0.636295 1.81883,0.753862 0.036,0.186752 -0.61806,1.537009 -1.61204,3.328162 -1.1452,2.063635 -1.61978,3.016944 -2.07945,4.17708 -0.54662,1.379611 -0.75017,2.436136 -0.62009,3.218562 0.2361,1.420004 0.87549,2.440696 1.81511,2.897554 0.56927,0.276802 0.99493,0.37347 1.65437,0.375734 0.48963,0.0017 0.6176,-0.01833 1.01397,-0.158518 0.51165,-0.180969 1.06358,-0.488124 1.52738,-0.850009 1.13864,-0.888445 1.9899,-1.263592 2.07727,-0.91545 0.0679,0.270453 -0.35789,1.050002 -1.01052,1.850142 -3.02642,3.71048 -9.04402,7.536079 -13.67252,8.692095 -3.42831,0.856261 -8.35323,1.364683 -16.64576,1.718426 -2.14054,0.09131 -8.91712,0.124678 -11.18037,0.05504 -7.28885,-0.224231 -13.94388,-0.733049 -27.69747,-2.117636 -3.36079,-0.338334 -7.83961,-0.770116 -9.95293,-0.959517 -29.462932,-2.640515 -41.787439,-3.450866 -52.5398,-3.454552 -3.67561,-0.0014 -5.406864,0.04253 -8.058415,0.203825 -11.715442,0.712667 -19.518566,3.224499 -26.336601,8.477765 -1.666993,1.284409 -3.022533,2.50211 -4.857107,4.363212 -3.537062,3.588223 -7.0789727,8.056734 -12.0709377,15.228846 -1.67856,2.411621 -2.346119,3.651067 -2.527532,4.692819 -0.11123,0.638742 0.08986,1.127285 0.536983,1.304643 0.204642,0.08118 0.961944,0.06909 1.397395,-0.02219 z M 138.63631,69.735853 c -0.0302,-0.08955 -0.11731,-7.359001 -0.0894,-7.447496 0.0172,-0.05446 0.1798,-0.06358 0.74898,-0.04218 0.95089,0.03576 0.90028,0.03576 1.98455,4.99e-4 0.73493,-0.02402 1.00281,-0.01352 1.2405,0.04856 0.26276,0.06862 0.33635,0.06918 0.55209,0.004 0.35115,-0.105678 1.93127,-0.103356 2.29065,0.0032 0.38557,0.114496 0.68811,0.359661 0.84517,0.684899 l 0.13401,0.277471 0.037,3.242052 0.037,3.242041 h -0.72021 -0.72022 l -0.0352,-1.400887 c -0.0193,-0.770488 -0.0375,-2.061296 -0.0404,-2.868477 -0.004,-0.807175 -0.021,-1.599678 -0.0401,-1.761108 l -0.0346,-0.293518 h -0.8005 -0.8005 v 3.175325 3.17533 l -0.67771,0.0149 c -0.60482,0.01328 -0.68296,0.0041 -0.72654,-0.08003 -0.0269,-0.05224 -0.0646,-1.457473 -0.0841,-3.122744 -0.0194,-1.665285 -0.0492,-3.064171 -0.0663,-3.108632 -0.0257,-0.067 -0.16155,-0.08085 -0.79259,-0.08085 -0.54861,0 -0.77723,0.01881 -0.81756,0.06743 -0.0388,0.0468 -0.0417,1.015044 -0.01,3.158682 0.0255,1.700173 0.0345,3.11074 0.0196,3.13457 -0.0465,0.07525 -1.40812,0.05306 -1.4338,-0.02333 z m -2.16227,-0.04107 c -1.3014,-0.03904 -1.49169,-0.08239 -1.88753,-0.430822 -0.43405,-0.382061 -0.42438,-0.292645 -0.37263,-3.445659 l 0.0455,-2.766593 0.14365,-0.244348 c 0.17904,-0.304549 0.48522,-0.511115 0.91466,-0.617083 0.27675,-0.0683 0.51555,-0.0744 1.45097,-0.03707 l 1.11969,0.04461 0.0157,0.453615 c 0.009,0.249499 0.004,0.507936 -0.0145,0.574319 l -0.0302,0.120693 -1.05283,-0.01392 -1.05283,-0.01392 -0.0454,0.922069 c -0.0346,0.703711 -0.0298,0.940658 0.0199,1.000631 0.0475,0.05735 0.18237,0.07865 0.49895,0.07881 0.23855,0 0.70468,0.01588 1.03585,0.03499 l 0.6021,0.03459 -0.0149,0.565436 -0.015,0.565453 -1.01398,-0.01644 c -0.55769,-0.0091 -1.04194,0.0032 -1.07612,0.02697 -0.0715,0.0499 -0.11925,1.816474 -0.0521,1.925087 0.0275,0.04447 0.20667,0.06561 0.55767,0.06585 0.28446,0 0.75134,0.01571 1.03752,0.03467 l 0.52033,0.03451 v 0.546596 c 0,0.449194 -0.015,0.552363 -0.0844,0.578988 -0.0463,0.01782 -0.0885,0.02795 -0.0934,0.02228 -0.005,-0.0049 -0.5253,-0.02551 -1.15637,-0.04439 z m 11.67195,-0.197413 c -0.32739,-0.109131 -0.69526,-0.433074 -0.80594,-0.709714 -0.0661,-0.165499 -0.11773,-0.767499 -0.21961,-2.566201 -0.15314,-2.70385 -0.16083,-3.133501 -0.0603,-3.373976 0.10831,-0.259204 0.538,-0.611366 0.8603,-0.705063 0.33728,-0.09804 2.07199,-0.181608 2.47427,-0.119188 0.52974,0.08221 1.0233,0.448569 1.12727,0.836738 0.0529,0.197837 0.32182,4.65561 0.32182,5.33652 0,0.593017 -0.23399,0.94433 -0.79491,1.193559 -0.42406,0.188422 -2.43637,0.262821 -2.90283,0.107325 z m 1.87252,-1.116269 c 0.19476,-0.02033 0.33606,-0.06245 0.35237,-0.104992 0.0286,-0.07444 -0.21961,-4.766837 -0.26257,-4.965037 -0.0136,-0.06277 -0.055,-0.124732 -0.0919,-0.137643 -0.12926,-0.04513 -1.47693,0.03893 -1.5335,0.09565 -0.0405,0.04068 -0.0179,0.759349 0.0783,2.481568 0.0745,1.333357 0.14756,2.478317 0.16236,2.544364 0.0255,0.113433 0.053,0.120075 0.49839,0.120075 0.25929,0 0.61776,-0.01531 0.79657,-0.03394 z m -17.94725,1.106274 -0.26683,-0.03167 0.004,-0.346883 c 0.003,-0.190787 0.011,-0.847203 0.0208,-1.458688 0.0222,-1.402353 0.0666,-1.329972 -0.83919,-1.372359 -0.34407,-0.01604 -0.66384,-0.01126 -0.71057,0.01069 -0.0693,0.03256 -0.0914,0.180573 -0.11987,0.803091 -0.0192,0.419709 -0.0354,1.087319 -0.0359,1.483563 -5.3e-4,0.396252 -0.0223,0.754248 -0.0485,0.795566 -0.0389,0.0614 -0.17223,0.06844 -0.72992,0.03864 -0.37532,-0.02001 -0.69008,-0.04415 -0.69946,-0.05354 -0.024,-0.02406 0.14121,-6.646831 0.17779,-7.12354 l 0.0301,-0.392492 1.34244,0.03634 c 2.1611,0.05852 2.48159,0.119811 2.90454,0.555651 0.31608,0.325668 0.35545,0.533127 0.31209,1.643925 -0.0397,1.018013 -0.0789,1.180677 -0.34562,1.432352 -0.19642,0.185393 -0.20996,0.290669 -0.0554,0.430531 0.0618,0.05589 0.16151,0.197738 0.22154,0.315139 0.10497,0.205351 0.10774,0.27003 0.0733,1.701373 -0.0198,0.818335 -0.0489,1.50877 -0.0645,1.534294 -0.0311,0.0503 -0.739,0.04909 -1.16978,-0.0024 z m -0.20357,-4.447756 c 0.0757,-0.117763 0.0897,-1.793297 0.0157,-1.882417 -0.052,-0.06262 -0.21811,-0.07882 -0.80732,-0.07882 h -0.74194 l -0.0522,0.136891 c -0.0286,0.07529 -0.0521,0.50834 -0.0521,0.962324 0,0.806128 0.004,0.826569 0.12008,0.8737 0.19291,0.07754 1.46646,0.06773 1.51752,-0.01166 z m 22.52312,4.301154 c -0.0862,-0.143305 -2.27339,-7.304022 -2.2403,-7.33457 0.0587,-0.05426 1.36489,-0.159313 1.41076,-0.113446 0.0214,0.02146 0.26943,0.783312 0.55106,1.693002 0.28162,0.909697 0.5348,1.676802 0.56262,1.70469 0.0319,0.032 0.0688,0.032 0.1,0 0.0272,-0.02794 0.12386,-0.771162 0.21494,-1.651713 0.0911,-0.880557 0.18374,-1.673054 0.20593,-1.761109 l 0.0404,-0.160102 0.6653,-0.05819 c 0.36591,-0.03202 0.68676,-0.03937 0.71298,-0.01633 0.0418,0.03668 -0.67697,7.290111 -0.74575,7.525805 -0.0199,0.06828 -0.1295,0.09411 -0.51749,0.121986 -0.2707,0.01944 -0.59142,0.04884 -0.71268,0.06529 -0.12129,0.01644 -0.23272,0.0096 -0.24766,-0.01523 z m -30.69816,-0.05702 c -0.0587,-0.01442 -0.13507,-0.04917 -0.16969,-0.07727 -0.0404,-0.03272 -0.1746,-0.02916 -0.37358,0.01004 -0.37911,0.07452 -2.0135,-0.0041 -2.20456,-0.107268 -0.0981,-0.05249 -0.20335,-0.05224 -0.5139,5.91e-4 -0.47487,0.08123 -1.82427,0.02803 -2.21247,-0.08729 -0.35298,-0.104822 -0.68463,-0.371418 -0.84166,-0.676561 l -0.13114,-0.254801 0.0621,-2.413055 c 0.0342,-1.327187 0.0774,-2.806029 0.0961,-3.286333 l 0.0339,-0.873276 0.68328,0.02132 c 0.37583,0.01168 0.70063,0.03865 0.72179,0.05977 0.0383,0.03831 -0.0663,5.34894 -0.11642,5.908156 -0.0402,0.448983 -0.0368,0.450943 0.83467,0.47112 0.41566,0.0096 0.77643,-0.0032 0.80174,-0.02859 0.0253,-0.02527 0.0836,-1.42607 0.12956,-3.112779 0.0459,-1.686716 0.095,-3.100366 0.10895,-3.141451 0.0207,-0.06108 0.15256,-0.06905 0.72302,-0.0437 0.38369,0.01705 0.70725,0.04068 0.71902,0.05242 0.0117,0.01174 -0.0183,1.421937 -0.0668,3.133695 -0.0855,3.018426 -0.0852,3.114476 0.0102,3.184274 0.0709,0.05184 0.29721,0.07193 0.80983,0.07193 0.68785,0 0.71298,-0.0032 0.75966,-0.120083 0.0266,-0.06602 0.0747,-1.368859 0.107,-2.89515 0.0323,-1.5263 0.0723,-2.904771 0.0888,-3.063272 l 0.0302,-0.288191 0.69646,0.03334 c 0.38303,0.01831 0.70694,0.04383 0.71976,0.05662 0.0279,0.02788 -0.13559,6.560189 -0.17805,7.117266 l -0.0295,0.386905 -0.59584,-0.0057 c -0.32771,-0.0032 -0.64385,-0.01798 -0.70256,-0.0324 z m 34.55512,-0.31573 c 0,-0.02681 -0.22815,-1.437248 -0.50699,-3.13419 -0.27883,-1.69694 -0.50699,-3.171647 -0.50699,-3.277101 0,-0.433485 0.40983,-0.936642 0.90012,-1.105109 0.27841,-0.09566 1.92437,-0.347766 2.27049,-0.347766 0.5484,0 1.11264,0.304582 1.30102,0.70231 0.0773,0.163152 0.26116,1.160593 0.62213,3.374482 0.28184,1.728589 0.49983,3.155477 0.48441,3.170899 -0.0423,0.04228 -1.37482,0.228825 -1.40673,0.196919 -0.0152,-0.01523 -0.1312,-0.657866 -0.25766,-1.428046 -0.29571,-1.800792 -0.24968,-1.640477 -0.47101,-1.640477 -0.3247,0 -1.33253,0.166399 -1.39933,0.231053 -0.0504,0.04876 -0.0122,0.37861 0.17343,1.502185 0.13091,0.791848 0.23802,1.478129 0.23802,1.525068 0,0.06553 -0.096,0.09972 -0.41359,0.147291 -0.72818,0.109034 -1.02732,0.133058 -1.02732,0.08249 z m 1.65437,-4.587666 c 0.33755,-0.0476 0.64588,-0.116713 0.68517,-0.153797 0.0596,-0.05621 0.0479,-0.212919 -0.0701,-0.941322 -0.0779,-0.480632 -0.17141,-0.904393 -0.20784,-0.941667 -0.0536,-0.05471 -0.20104,-0.04802 -0.76774,0.03517 -0.3858,0.05668 -0.72669,0.11859 -0.7575,0.137637 -0.0309,0.01909 -0.0557,0.09925 -0.0555,0.178242 5.9e-4,0.187252 0.24964,1.647766 0.2928,1.717583 0.0451,0.073 0.16667,0.0686 0.88076,-0.03186 z m -46.50932,4.407822 c -0.65134,-0.04633 -1.00457,-0.184 -1.30256,-0.507303 -0.35812,-0.388517 -0.35557,-0.351613 -0.22472,-3.240176 0.0642,-1.41679 0.12968,-2.664173 0.14554,-2.771958 0.0529,-0.358308 0.2921,-0.653776 0.68704,-0.848205 0.3449,-0.169799 0.37415,-0.174765 0.97874,-0.166354 1.15753,0.01615 1.86315,0.09705 2.17461,0.24943 0.34459,0.168597 0.63867,0.484569 0.71508,0.768345 0.0851,0.316182 -0.16468,5.559611 -0.2776,5.826214 -0.10415,0.245957 -0.46843,0.555749 -0.77717,0.660944 -0.26236,0.0894 -1.10991,0.101023 -2.11896,0.02908 z m 1.49146,-1.169009 c 0.039,-0.06302 0.25293,-4.540158 0.2321,-4.856882 -0.0149,-0.227601 -0.0257,-0.24235 -0.2026,-0.278364 -0.25937,-0.05281 -1.37416,-0.07706 -1.42032,-0.0309 -0.0576,0.05761 -0.27503,4.961874 -0.22453,5.065003 0.0263,0.05362 0.12522,0.09867 0.24413,0.111108 0.4164,0.04358 1.34229,0.03686 1.37122,-0.0099 z m -5.17379,0.960442 c -0.30871,-0.02989 -0.32075,-0.03685 -0.33579,-0.19116 -0.008,-0.08807 0.0698,-1.483993 0.1743,-3.102057 0.10443,-1.618074 0.1757,-2.978922 0.15834,-3.024121 -0.0236,-0.06142 -0.14862,-0.09052 -0.49447,-0.115192 -0.25465,-0.01811 -0.60052,-0.04645 -0.76867,-0.06292 -0.28386,-0.02775 -0.30936,-0.021 -0.35761,0.09528 -0.0286,0.06886 -0.13795,1.492816 -0.24307,3.164375 -0.10511,1.671573 -0.20084,3.048938 -0.21273,3.060837 -0.0119,0.01191 -0.32521,0.004 -0.69627,-0.01733 -0.53511,-0.03094 -0.68121,-0.05597 -0.70638,-0.121581 -0.0429,-0.112096 0.41586,-7.334434 0.47038,-7.403391 0.0634,-0.08026 1.26906,0.0069 1.44033,0.104274 0.10662,0.06055 0.18757,0.06561 0.37358,0.02343 0.16148,-0.03661 0.45688,-0.03562 0.92307,0.0026 0.79437,0.06595 1.06606,0.162162 1.41079,0.49964 0.40436,0.395845 0.39932,0.279354 0.16694,3.853928 -0.11255,1.73165 -0.20556,3.17848 -0.20667,3.215165 -0.004,0.07096 -0.46959,0.07849 -1.09607,0.01774 z m -6.96439,-0.45322 c -0.98975,-0.09312 -1.40904,-0.282965 -1.69226,-0.766211 -0.13481,-0.230048 -0.14417,-0.28525 -0.13291,-0.783683 0.0175,-0.775648 -0.0141,-0.734702 0.53539,-0.691343 0.25443,0.02001 0.57067,0.05168 0.70276,0.07031 l 0.24015,0.03386 v 0.447873 c 0,0.534624 -0.0489,0.504646 0.91685,0.562675 0.50429,0.03029 0.64792,0.02333 0.6948,-0.03378 0.0328,-0.03985 0.0674,-0.343003 0.0776,-0.68074 l 0.0185,-0.60878 -1.4676,-1.057515 c -0.84517,-0.609006 -1.47412,-1.09799 -1.48298,-1.152964 -0.0374,-0.23188 0.14601,-2.041978 0.22173,-2.188393 0.12786,-0.247232 0.47575,-0.526122 0.78403,-0.628519 0.24125,-0.08014 0.39428,-0.08917 1.0079,-0.05956 1.61045,0.07772 2.05267,0.193191 2.43058,0.634707 0.26135,0.305315 0.31471,0.543722 0.25955,1.159563 l -0.0455,0.507727 -0.4803,-0.01983 c -0.26417,-0.01086 -0.58835,-0.03517 -0.72039,-0.05406 l -0.24008,-0.03418 v -0.448728 c 0,-0.444023 -0.003,-0.449108 -0.14651,-0.488297 -0.0806,-0.02178 -0.43156,-0.05662 -0.78004,-0.07741 -0.47031,-0.02802 -0.64381,-0.02132 -0.67321,0.02624 -0.0572,0.09269 -0.13704,1.181627 -0.0924,1.261074 0.0207,0.03689 0.68609,0.533336 1.47859,1.103298 l 1.4409,1.03632 0.0153,0.235272 c 0.008,0.129406 -0.0192,0.628455 -0.0611,1.108987 -0.0712,0.813945 -0.0869,0.8884 -0.22875,1.088486 -0.085,0.119848 -0.28205,0.287769 -0.44582,0.379915 -0.27138,0.152685 -0.3358,0.165896 -0.85388,0.175243 -0.30819,0.0049 -0.88455,-0.02041 -1.28081,-0.05767 z m 60.20795,-3.587805 c -0.44737,-2.014686 -0.80492,-3.67155 -0.79456,-3.681916 0.0575,-0.05751 1.34545,-0.280624 1.38601,-0.240076 0.0262,0.02615 0.3518,1.413288 0.72368,3.082511 l 0.67614,3.034969 0.16011,0.01498 c 0.088,0.0083 0.51807,-0.05775 0.95558,-0.146764 0.76797,-0.156208 1.04568,-0.191953 1.04568,-0.134557 0,0.01498 0.049,0.247002 0.10878,0.515606 0.0617,0.27706 0.0886,0.508461 0.0624,0.53481 -0.0478,0.04779 -3.20755,0.682271 -3.4017,0.683025 -0.10034,4.94e-4 -0.17067,-0.278997 -0.92204,-3.662663 z m -69.310442,2.783459 c -0.82438,-0.07784 -1.15663,-0.177025 -1.45849,-0.435399 -0.29633,-0.253652 -0.43248,-0.531579 -0.43314,-0.884253 -0.002,-0.537014 0.12366,-1.883587 0.18125,-1.957216 0.0318,-0.04061 0.30559,-0.24017 0.60849,-0.443401 0.30289,-0.203208 0.56484,-0.406271 0.58209,-0.451258 0.0212,-0.05526 -0.1476,-0.261353 -0.51975,-0.634767 l -0.55112,-0.553001 0.0528,-0.656257 c 0.0356,-0.442743 0.0854,-0.724005 0.15323,-0.864477 0.10439,-0.216289 0.44412,-0.493248 0.73791,-0.601566 0.36678,-0.135229 2.34952,-0.01577 2.88976,0.174151 0.35327,0.12417 0.74675,0.516663 0.83077,0.828725 0.0436,0.161958 0.0488,0.386212 0.0171,0.740093 l -0.0455,0.507724 -0.47438,-0.01883 c -0.26091,-0.01031 -0.58511,-0.03496 -0.72046,-0.05471 l -0.24606,-0.03589 0.0186,-0.43819 c 0.018,-0.424706 0.0146,-0.439738 -0.11337,-0.488395 -0.0725,-0.02762 -0.44364,-0.06714 -0.82445,-0.08785 l -0.6924,-0.03759 -0.0339,0.127153 c -0.0187,0.06995 -0.0345,0.227096 -0.0347,0.349229 -5.9e-4,0.218278 0.0152,0.237344 0.93319,1.115895 0.51366,0.491603 0.93336,0.920001 0.93265,0.952011 -5.8e-4,0.032 -0.22826,0.208012 -0.50572,0.391144 -0.45386,0.299562 -0.5178,0.326914 -0.63707,0.272559 -0.11694,-0.05329 -0.17301,-0.03405 -0.47522,0.162823 -0.18846,0.12277 -0.37951,0.264291 -0.42457,0.314483 -0.11203,0.124754 -0.22008,1.342265 -0.12749,1.436558 0.0578,0.05873 0.9945,0.175494 1.40985,0.175599 0.18759,4.9e-5 0.19192,-0.0085 0.25502,-0.49465 l 0.033,-0.254543 -0.33355,-0.347352 c -0.28684,-0.298713 -0.32281,-0.357543 -0.25692,-0.42012 0.14774,-0.140297 2.22836,-1.525207 2.2914,-1.525207 0.085,0 0.80047,0.693512 0.80047,0.775852 0,0.03551 -0.1912,0.19008 -0.42486,0.343476 -0.23366,0.153411 -0.45238,0.312114 -0.48603,0.352669 -0.0337,0.04054 -0.093,0.469296 -0.13184,0.952769 -0.0791,0.984992 -0.13537,1.161313 -0.45869,1.438058 -0.41624,0.356294 -0.87381,0.410394 -2.31776,0.274055 z m -7.06769,-0.588878 c -0.4256,-0.03718 -0.87025,-0.09364 -0.98813,-0.125436 -0.53073,-0.143192 -0.97649,-0.593139 -1.02384,-1.033423 -0.0319,-0.29693 0.34017,-5.289131 0.41399,-5.554457 0.13739,-0.49379 0.70222,-0.849945 1.35783,-0.856204 0.46975,-0.0047 2.18609,0.12842 2.26167,0.175127 0.0577,0.0356 0.002,1.040869 -0.062,1.104075 -0.0287,0.0287 -1.37525,-0.05574 -1.80901,-0.113439 -0.12696,-0.01688 -0.22253,0 -0.27058,0.04819 -0.0871,0.08709 -0.23511,1.833411 -0.16162,1.906907 0.0359,0.03589 1.71752,0.206896 2.03495,0.206896 0.0637,0 0.0702,0.09053 0.039,0.547005 -0.0207,0.300859 -0.0555,0.565281 -0.0776,0.587626 -0.0221,0.02231 -0.48122,0.0029 -1.02032,-0.04199 -0.80317,-0.06765 -0.99267,-0.07013 -1.04939,-0.01334 -0.041,0.04097 -0.0914,0.319214 -0.12349,0.682395 -0.0742,0.839158 -0.0707,1.224848 0.0114,1.253368 0.0367,0.01272 0.49122,0.05751 1.0101,0.09952 0.51887,0.04204 0.96875,0.09207 0.99973,0.111213 0.0359,0.02219 0.0457,0.183967 0.0271,0.445815 -0.049,0.690234 -0.0232,0.652164 -0.43698,0.644485 -0.19756,-0.0032 -0.70743,-0.03702 -1.13303,-0.07428 z M 28.907254,66.578514 c -0.0165,-0.04293 -0.289011,-1.706608 -0.605608,-3.696975 -0.424346,-2.667765 -0.559921,-3.634367 -0.515858,-3.677892 0.06492,-0.06412 1.313636,-0.252517 1.360845,-0.205308 0.01586,0.01589 0.248142,1.409671 0.516187,3.09737 0.268046,1.687698 0.513098,3.094279 0.544563,3.125747 0.04071,0.04066 0.346715,0.01717 1.060484,-0.08158 0.551804,-0.07631 1.018772,-0.121089 1.03771,-0.09948 0.04318,0.04928 0.156222,0.751288 0.156222,0.970158 0,0.106863 -0.02667,0.16315 -0.07729,0.16315 -0.100055,0 -3.166563,0.420317 -3.326028,0.455893 -0.0768,0.01709 -0.132237,-0.0024 -0.151227,-0.05111 z m 52.251914,-0.213605 c -0.91869,-0.07816 -1.09264,-0.110379 -1.38755,-0.256948 -0.28405,-0.141159 -0.49299,-0.341634 -0.62622,-0.60081 -0.10138,-0.197211 -0.10676,-0.270224 -0.0727,-0.987294 0.0202,-0.425881 0.10374,-1.703782 0.18563,-2.839768 0.1473,-2.043212 0.15045,-2.067782 0.29374,-2.284291 0.18242,-0.275664 0.55008,-0.511307 0.9164,-0.587359 0.39974,-0.08298 2.24783,0.0607 2.62523,0.204102 0.38508,0.146329 0.62914,0.353236 0.78461,0.665222 0.14307,0.287131 0.1589,0.455344 0.10074,1.071267 l -0.0345,0.365632 -0.64554,-0.03812 c -0.35503,-0.02093 -0.68528,-0.05905 -0.7339,-0.08466 -0.075,-0.03937 -0.084,-0.110928 -0.0595,-0.468343 0.0337,-0.491194 0.0676,-0.462219 -0.59927,-0.512534 -0.23481,-0.01771 -0.53499,-0.0437 -0.66708,-0.0577 -0.13208,-0.01399 -0.27435,-0.003 -0.31616,0.02444 -0.10768,0.07073 -0.45749,5.0172 -0.36143,5.111008 0.0905,0.08839 1.47865,0.190374 1.56912,0.115287 0.038,-0.03159 0.0693,-0.156439 0.0697,-0.277592 5.1e-4,-0.121152 0.0157,-0.312288 0.0344,-0.424759 l 0.0337,-0.204463 0.29919,0.02916 c 0.16454,0.01604 0.4886,0.04433 0.72015,0.06298 l 0.421,0.03382 -0.0286,0.558502 c -0.0252,0.495635 -0.0458,0.586679 -0.18291,0.808603 -0.12013,0.194578 -0.23093,0.288935 -0.49923,0.425064 -0.42862,0.217501 -0.74191,0.242992 -1.83908,0.149631 z M 33.295676,65.92277 c -0.01628,-0.08212 -0.202763,-1.546817 -0.414409,-3.254896 -0.432786,-3.492748 -0.431286,-3.354473 -0.04097,-3.777917 0.32283,-0.350225 0.613744,-0.44794 1.697367,-0.570136 0.516654,-0.05826 1.095468,-0.09564 1.286256,-0.08307 0.655823,0.04322 1.168106,0.43097 1.280941,0.969543 0.11034,0.52667 0.802772,6.292592 0.760728,6.334639 -0.06706,0.06707 -1.344041,0.178264 -1.396336,0.121589 -0.02496,-0.02705 -0.121004,-0.673557 -0.213445,-1.436703 -0.09244,-0.763147 -0.17986,-1.441576 -0.194264,-1.507612 -0.02176,-0.09981 -0.06172,-0.12008 -0.236728,-0.12008 -0.40593,0 -1.309063,0.120663 -1.377081,0.183983 -0.05584,0.05197 -0.03304,0.346739 0.121778,1.574871 0.104758,0.831002 0.18304,1.518352 0.173955,1.527432 -0.0091,0.0092 -0.231987,0.04163 -0.495345,0.07241 -0.263358,0.03078 -0.578734,0.06925 -0.700841,0.08558 -0.209833,0.02811 -0.223632,0.02155 -0.251604,-0.119637 z m 1.861157,-4.452646 c 0.322868,-0.03346 0.619912,-0.09124 0.660095,-0.128411 0.06173,-0.05708 0.05567,-0.206423 -0.03906,-0.962932 -0.06166,-0.492433 -0.135187,-0.918413 -0.163388,-0.946615 -0.06629,-0.06629 -1.483586,0.08798 -1.566056,0.17044 -0.04396,0.04399 -0.03364,0.280842 0.03923,0.900526 0.05439,0.462478 0.119917,0.8829 0.145628,0.934266 0.0554,0.110697 0.141568,0.113748 0.923548,0.03274 z m 41.954984,4.540142 c -0.259476,-0.023 -0.484891,-0.055 -0.500937,-0.07104 -0.0401,-0.0401 0.521454,-7.413624 0.568507,-7.464621 0.04382,-0.0475 1.347821,0.05571 1.399331,0.110754 0.019,0.0203 -0.0942,1.693949 -0.25149,3.719224 -0.15731,2.025276 -0.28692,3.700326 -0.28802,3.72235 -0.003,0.04658 -0.26792,0.0418 -0.927391,-0.01669 z m -3.714401,-0.165677 c -0.365164,-0.02592 -0.67179,-0.05492 -0.681388,-0.06456 -0.04471,-0.04471 -1.121615,-7.536262 -1.088422,-7.571524 0.04406,-0.0468 1.304878,0.0123 1.390446,0.06519 0.03175,0.01964 0.165321,0.77851 0.296776,1.686389 0.277134,1.914007 0.272638,1.890834 0.366963,1.890834 0.07598,0 0.09856,-0.07444 0.678431,-2.235521 l 0.334927,-1.248229 0.69707,0.03679 c 0.383389,0.02024 0.713108,0.05361 0.732702,0.07416 0.03621,0.038 -1.86833,7.239838 -1.9469,7.36197 -0.02365,0.03669 -0.05945,0.06326 -0.07979,0.05913 -0.02033,-0.0032 -0.335648,-0.02884 -0.70082,-0.05468 z m -4.459293,-0.252007 c -0.141953,-0.03094 -0.159505,-0.05581 -0.154929,-0.220498 0.0032,-0.102109 0.02381,-0.76202 0.04657,-1.466468 0.05103,-1.575995 0.112428,-1.462535 -0.831821,-1.536366 -0.524645,-0.04108 -0.658125,-0.03687 -0.717247,0.02256 -0.05411,0.05439 -0.09011,0.452606 -0.141539,1.567203 l -0.06885,1.494275 -0.705365,-0.0032 c -0.387949,-0.0024 -0.71766,-0.01498 -0.732701,-0.03005 -0.04277,-0.04277 0.297318,-7.433088 0.344395,-7.483794 0.06974,-0.07512 3.278289,0.116251 3.561562,0.212423 0.346964,0.117797 0.621278,0.313169 0.796506,0.567276 l 0.151081,0.219102 -0.01183,1.044137 c -0.01336,1.174778 -0.05354,1.359208 -0.362386,1.658501 -0.221397,0.214578 -0.227448,0.262138 -0.05411,0.425035 0.271164,0.254738 0.314345,0.496248 0.274865,1.537335 -0.01976,0.520018 -0.05079,1.191638 -0.06917,1.492502 l -0.03329,0.547009 -0.565825,-0.0065 c -0.31121,-0.0041 -0.637883,-0.02203 -0.725938,-0.04115 z m -0.0032,-4.428817 c 0.01588,-0.02572 0.04496,-0.455225 0.06464,-0.95439 0.03378,-0.857687 0.03013,-0.910447 -0.06585,-0.959841 -0.132492,-0.06824 -1.414357,-0.129749 -1.507078,-0.07232 -0.09287,0.05751 -0.19197,1.807655 -0.108094,1.908734 0.05913,0.0712 0.327499,0.09928 1.096942,0.114772 0.269762,0.0052 0.50352,-0.01122 0.519429,-0.03694 z m -29.229446,4.205864 c -0.414706,-0.100326 -0.813942,-0.389911 -0.983068,-0.713062 -0.06311,-0.120591 -0.128672,-0.900279 -0.286981,-3.413026 -0.112852,-1.791197 -0.194153,-3.267761 -0.180672,-3.281241 0.01348,-0.01348 0.336333,-0.03577 0.717443,-0.04954 0.558808,-0.02018 0.697602,-0.01076 0.717079,0.04873 0.01329,0.04056 0.107864,1.45201 0.210182,3.136537 0.141382,2.327718 0.203077,3.073929 0.257054,3.109227 0.06726,0.04396 1.215424,0.01356 1.471908,-0.03893 0.109361,-0.02238 0.11987,-0.05423 0.117784,-0.357123 -0.0014,-0.182884 -0.08263,-1.59332 -0.180814,-3.134288 -0.09819,-1.540971 -0.160393,-2.821388 -0.138229,-2.845366 0.05688,-0.06153 1.442124,-0.117129 1.441683,-0.05785 -1.66e-4,0.02645 0.08586,1.428911 0.191238,3.116591 0.118574,1.89899 0.214279,3.095826 0.25111,3.140208 0.04734,0.05701 0.207504,0.06415 0.782709,0.0347 0.422447,-0.02158 0.749424,-0.06248 0.786267,-0.0983 0.04848,-0.0471 0.01834,-0.780314 -0.130207,-3.168706 -0.106299,-1.709061 -0.181865,-3.118793 -0.167921,-3.132739 0.01395,-0.01395 0.342703,-0.0421 0.730584,-0.06258 0.586027,-0.03093 0.705607,-0.0246 0.707454,0.03746 8.1e-4,0.04108 0.106158,1.719722 0.233191,3.730327 0.127032,2.010598 0.212454,3.676071 0.189823,3.701068 -0.06642,0.07334 -1.371219,0.113186 -1.454089,0.0444 -0.05245,-0.04352 -0.140173,-0.03732 -0.334953,0.02365 -0.198562,0.06213 -0.514908,0.08294 -1.277863,0.08393 -0.557685,5.91e-4 -1.074011,-0.004 -1.14739,-0.01272 -0.07338,-0.0073 -0.277509,0.02365 -0.453619,0.06958 -0.380048,0.0992 -1.778833,0.159302 -2.069703,0.08895 z m 23.603251,-0.102538 c -0.484307,-0.02033 -0.976981,-0.06423 -1.094844,-0.09756 -0.55383,-0.156421 -0.983486,-0.602853 -1.025088,-1.065098 -0.01247,-0.138699 0.01361,-1.420106 0.058,-2.847576 0.06099,-1.962879 0.09904,-2.639191 0.155925,-2.775086 0.08982,-0.214604 0.43804,-0.54083 0.717393,-0.672113 0.178443,-0.08385 0.346874,-0.09285 1.482122,-0.07918 0.920913,0.01109 1.295992,0.03358 1.334799,0.08006 0.03118,0.0374 0.04641,0.286724 0.03621,0.591893 l -0.01782,0.527266 -1.026424,-0.03829 c -0.828225,-0.0309 -1.037351,-0.02451 -1.08297,0.03309 -0.08915,0.112535 -0.142633,1.841117 -0.05872,1.895435 0.03718,0.02408 0.523981,0.06781 1.081658,0.09716 l 1.013974,0.05341 0.01863,0.132203 c 0.01029,0.07272 0.0024,0.333424 -0.01863,0.579337 l -0.03726,0.447119 -1.030142,-0.03865 c -1.00427,-0.03766 -1.031616,-0.03583 -1.088761,0.07091 -0.03572,0.06688 -0.05873,0.452472 -0.05873,0.990007 0,0.792875 0.0092,0.883103 0.09339,0.906942 0.05143,0.01458 0.532453,0.04294 1.069078,0.06321 l 0.975686,0.03674 -0.01498,0.567482 -0.01507,0.567491 -0.293504,0.0049 c -0.161441,0.0032 -0.689772,-0.01126 -1.174071,-0.03159 z M 57.491729,65.161994 C 56.84552,65.135183 56.673897,65.10983 56.451074,65.008492 55.817476,64.720464 55.598257,64.292308 55.660198,63.46385 l 0.03313,-0.441767 0.699111,0.0148 0.699127,0.0148 0.02665,0.453621 0.02665,0.453612 0.346891,0.03382 c 0.190787,0.01859 0.544158,0.03659 0.785279,0.04002 0.543825,0.0076 0.548888,5.91e-4 0.548888,-0.762468 0,-0.669743 0.221956,-0.451485 -1.709505,-1.681089 l -1.412454,-0.899185 0.01685,-1.083005 c 0.02114,-1.3516 0.07412,-1.488776 0.703566,-1.819267 0.233143,-0.122424 0.277644,-0.126099 1.526405,-0.126099 h 1.286255 l 0.365877,0.186783 c 0.260837,0.133167 0.412469,0.253147 0.528218,0.417971 0.154491,0.219998 0.163223,0.260965 0.180427,0.846466 0.0099,0.338404 -0.0032,0.633082 -0.02665,0.654835 -0.02454,0.02179 -0.350957,0.02823 -0.725193,0.01429 l -0.680424,-0.02527 v -0.413963 c 0,-0.267291 -0.02365,-0.432757 -0.06666,-0.467014 -0.08884,-0.07067 -1.439727,-0.120732 -1.552641,-0.05755 -0.07412,0.0415 -0.08825,0.145745 -0.08758,0.647191 5.03e-4,0.328749 0.01847,0.625175 0.04001,0.658727 0.02155,0.03354 0.687618,0.473673 1.480122,0.978047 0.792495,0.504383 1.479521,0.957237 1.526704,1.006339 0.07533,0.07838 0.08184,0.220227 0.05346,1.160681 -0.03191,1.055388 -0.03459,1.074699 -0.179642,1.293691 -0.187475,0.283085 -0.462251,0.463535 -0.864635,0.567763 -0.326802,0.08466 -0.415611,0.08625 -1.736559,0.03127 z M 47.384687,64.587465 c -0.05435,-0.976036 -0.158614,-6.826837 -0.123249,-6.918992 0.02843,-0.07408 0.134589,-0.08693 0.718129,-0.08693 0.439685,0 0.70645,0.02169 0.745346,0.06058 0.0452,0.04518 0.121678,0.04518 0.301142,0 0.132313,-0.03332 0.565882,-0.06058 0.963495,-0.06058 0.584512,0 0.774741,0.01968 0.993497,0.102806 0.366817,0.139379 0.615746,0.339494 0.75556,0.607396 0.131342,0.251684 0.153665,0.71182 0.231587,4.773254 l 0.03912,2.04129 h -0.727911 -0.727915 l -0.0032,-0.226809 c -0.0016,-0.124747 -0.03386,-1.533299 -0.07193,-3.130111 -0.05864,-2.459305 -0.0814,-2.91226 -0.148983,-2.961872 -0.05322,-0.03907 -0.326892,-0.04968 -0.82194,-0.03188 l -0.742138,0.02669 v 1.120709 c 0,0.616389 0.01199,2.045289 0.02665,3.175331 l 0.02665,2.054634 -0.701184,0.0149 -0.701177,0.01482 -0.03208,-0.575202 z M 104.85189,43.315063 c -0.39395,-0.100976 -0.76663,-0.29606 -1.03297,-0.540745 -0.55333,-0.508321 -0.50323,-0.993255 0.18494,-1.789923 0.91915,-1.064055 1.08566,-2.077834 0.44631,-2.717182 -0.21402,-0.214024 -0.40574,-0.299799 -0.78348,-0.350506 -0.1541,-0.0207 -0.28017,-0.04729 -0.28017,-0.05912 0,-0.01183 0.20027,-0.303759 0.44506,-0.648737 1.0851,-1.529243 2.27497,-3.392393 2.93966,-4.603068 0.16921,-0.308194 0.33831,-0.592405 0.37575,-0.631579 0.0865,-0.09045 0.0324,-0.333791 0.6151,2.766257 0.26759,1.423565 0.556,2.840458 0.64094,3.148652 0.52125,1.891687 0.52193,3.238039 0.003,4.079246 -0.43917,0.710579 -1.71318,1.343867 -2.80382,1.393714 -0.29172,0.01333 -0.58595,-0.0051 -0.74936,-0.04702 z m 2.07419,-1.439052 c 0.60228,-0.317002 0.80812,-0.736727 0.80363,-1.638754 -0.004,-0.599893 -0.0834,-1.070305 -0.36512,-2.134679 -0.0971,-0.366898 -0.19736,-0.762893 -0.22281,-0.87999 -0.0793,-0.365091 -0.17656,-0.303433 -0.65105,0.412892 -0.23973,0.361897 -0.43587,0.689408 -0.43587,0.7278 0,0.03839 0.0958,0.178581 0.21278,0.311529 0.68708,0.780565 0.75716,1.994634 0.17695,3.065477 -0.22312,0.411807 -0.10587,0.444862 0.48149,0.135725 z M 78.562138,40.935358 c -0.58385,-0.186717 -0.9557,-0.519582 -1.226194,-1.097609 -0.247439,-0.528765 -0.330164,-1.093949 -0.296938,-2.02869 0.02252,-0.633151 0.05719,-0.904019 0.165807,-1.295652 0.778065,-2.804802 3.614335,-6.102824 5.943745,-6.911386 0.79149,-0.274729 1.8085,-0.263906 2.37865,0.02531 0.50504,0.25618 0.88236,0.786613 1.05579,1.484168 0.1107,0.445312 0.0981,1.991659 -0.0207,2.541764 -0.38872,1.799552 -1.54705,3.942426 -2.77419,5.132216 l -0.23649,0.229284 -0.36166,-0.383388 c -0.87261,-0.925015 -1.50214,-2.261277 -1.68494,-3.576557 -0.0343,-0.24628 -0.0839,-0.502716 -0.11042,-0.569859 -0.0424,-0.107297 -0.0627,-0.114359 -0.16848,-0.05833 -0.1788,0.09475 -0.87285,0.777852 -1.13599,1.118073 -0.7414,0.958599 -1.07463,2.155599 -0.93483,3.358049 0.0789,0.678777 0.16715,0.978464 0.46079,1.564932 0.12959,0.258821 0.23561,0.492968 0.23561,0.520328 0,0.09044 -0.96536,0.05101 -1.28954,-0.05266 z m 5.61759,-4.356487 c 0.57522,-0.856808 1.17207,-2.289833 1.36053,-3.266604 0.097,-0.502599 0.10877,-1.642217 0.0181,-1.751445 -0.098,-0.118145 -0.57962,-0.09208 -1.05119,0.0569 -0.43892,0.138653 -1.13084,0.523918 -1.55287,0.864652 -0.46682,0.376892 -0.90833,0.777269 -0.93565,0.848488 -0.015,0.03919 0.0512,0.165249 0.14716,0.280128 0.096,0.114879 0.21618,0.318036 0.26715,0.451457 0.0695,0.181934 0.13257,0.256507 0.25232,0.29825 0.47683,0.166232 0.65503,0.459387 0.76789,1.263469 0.12641,0.900581 0.26252,1.371659 0.38925,1.347253 0.0465,-0.009 0.19839,-0.185618 0.33732,-0.392537 z m 77.777032,-0.486513 c -0.42873,-0.09343 -0.82263,-0.246165 -0.93022,-0.360686 -0.10326,-0.109915 -0.11991,-0.171454 -0.0955,-0.353246 0.0667,-0.497393 0.69668,-1.576334 1.70343,-2.917469 1.25708,-1.674586 2.49126,-2.675976 3.67173,-2.979162 0.42653,-0.109548 1.44837,-0.08556 1.80405,0.04235 0.80913,0.290979 1.09789,0.951009 0.89292,2.040983 -0.10185,0.541603 -0.30682,0.975175 -0.72242,1.528165 -0.99411,1.322746 -3.07022,2.595313 -4.81408,2.950848 -0.37609,0.07667 -1.25109,0.104618 -1.50989,0.04822 z m 2.82845,-1.619614 c 1.32645,-0.634706 2.48209,-1.615275 2.95965,-2.511267 0.15507,-0.290956 0.16549,-0.336006 0.0942,-0.407281 -0.0713,-0.07127 -0.11455,-0.07014 -0.39133,0.01032 -0.84152,0.244638 -1.7201,0.933293 -2.61657,2.050976 -0.96542,1.203618 -0.97058,1.299683 -0.0459,0.857251 z m -9.89956,19.744714 c 9.08115,-0.27546 15.70903,-0.985643 18.91858,-2.027142 2.42313,-0.7863 5.6153,-2.501585 8.00879,-4.303467 1.24587,-0.937923 1.26368,-0.962314 0.78998,-1.081598 -0.65746,-0.16555 -1.46812,-0.671265 -1.89273,-1.180746 -0.12934,-0.155192 -0.45212,-0.512557 -0.71727,-0.794147 -0.70037,-0.743748 -1.05163,-1.385032 -1.30827,-2.388481 -0.25265,-0.987859 -0.25099,-1.716757 0.006,-2.794176 0.11209,-0.469302 0.12748,-0.637884 0.0581,-0.637884 -0.0246,0 -0.2586,0.246155 -0.51997,0.547011 -0.8359,0.962193 -2.37608,2.491524 -3.07031,3.048681 -1.58772,1.274232 -4.46504,2.668195 -7.05712,3.418929 -1.91823,0.555572 -3.59152,0.801371 -5.45136,0.800783 -1.42324,-5e-4 -1.93847,-0.06459 -2.85513,-0.355422 -1.24126,-0.393816 -1.89837,-0.84791 -2.9793,-2.058835 -0.24673,-0.276422 -0.43099,-0.438018 -0.49942,-0.438018 -0.0596,0 -0.37599,0.153248 -0.70302,0.340552 -2.23827,1.281931 -4.30543,2.011573 -6.30488,2.225397 -0.65864,0.07043 -1.97008,0.03782 -2.42819,-0.06038 -0.6303,-0.135119 -1.09056,-0.442022 -1.44447,-0.963163 -0.11773,-0.173378 -0.27503,-0.355176 -0.34954,-0.403994 -0.12775,-0.0837 -0.1497,-0.08253 -0.38483,0.02056 -2.8534,1.250954 -3.12928,1.359436 -3.77286,1.483513 -1.38552,0.267112 -2.72761,0.307595 -3.46466,0.104512 -0.64403,-0.177454 -1.17653,-0.551664 -1.45068,-1.019456 -0.073,-0.12457 -0.25025,-0.316114 -0.39389,-0.425655 -0.6767,-0.516054 -0.96216,-1.346401 -0.77701,-2.260149 0.25816,-1.27404 1.01565,-2.56125 3.44019,-5.846028 1.52459,-2.065527 2.78266,-4.089919 3.04594,-4.901333 0.10358,-0.319227 0.018,-0.344542 -0.40685,-0.120376 -1.24374,0.656187 -2.94443,2.450773 -4.43399,4.67878 -0.2075,0.310369 -1.25848,2.08749 -2.3355,3.949157 -1.07703,1.861666 -2.13413,3.652972 -2.34909,3.98068 -0.96938,1.477769 -1.75475,1.963864 -3.281,2.030753 -1.47235,0.06453 -2.29612,-0.205725 -2.65271,-0.870282 -0.12032,-0.224235 -0.24162,-0.358792 -0.44901,-0.498098 -0.50857,-0.341589 -0.72377,-0.838078 -0.67149,-1.549069 0.0507,-0.689157 0.18935,-0.989258 1.46872,-3.177991 0.714,-1.221533 2.05067,-3.443414 3.00289,-4.991573 0.75425,-1.226305 1.0108,-1.782781 1.51052,-3.276483 0.17891,-0.534783 0.14175,-0.586633 -0.27414,-0.382657 -0.70441,0.345471 -1.78277,1.172073 -2.75461,2.111494 -0.67638,0.653834 -1.05113,1.120667 -1.69354,2.109761 -0.28597,0.440277 -0.67563,1.040656 -0.8659,1.334174 -0.19027,0.293518 -0.64029,1.037988 -1.00004,1.654376 -0.35975,0.616389 -0.95034,1.594676 -1.31242,2.173974 -0.36208,0.579295 -0.84216,1.383802 -1.06684,1.787793 -0.69332,1.246691 -1.63448,2.539326 -2.13707,2.93518 -0.31411,0.247418 -0.69667,0.419514 -1.16168,0.522595 -0.34984,0.07755 -0.57527,0.08861 -1.2808,0.06287 -0.47093,-0.01719 -0.98832,-0.05971 -1.14976,-0.09449 -0.58256,-0.12551 -0.93524,-0.382326 -1.1777,-0.857592 -0.058,-0.113488 -0.12479,-0.206342 -0.14863,-0.206342 -0.0239,0 -0.41359,0.189853 -0.86612,0.421893 -1.40906,0.722516 -2.89579,1.107124 -5.09253,1.317395 -1.16721,0.111731 -2.6591,0.07876 -3.36173,-0.07429 -1.49219,-0.325037 -2.79436,-1.023329 -3.61181,-1.936857 -0.52041,-0.581569 -1.30288,-1.382517 -1.35064,-1.382517 -0.0236,0 -0.30955,0.15301 -0.635502,0.340023 -2.31197,1.326527 -4.38037,2.062082 -6.40962,2.279373 -0.65602,0.07024 -1.96434,0.03686 -2.4282,-0.06197 -0.62499,-0.133165 -1.2435,-0.571584 -1.49112,-1.05696 -0.061,-0.119598 -0.18279,-0.254611 -0.27063,-0.300031 -0.14204,-0.07346 -0.19358,-0.07398 -0.46644,-0.0047 -0.92695,0.23533 -1.94862,0.314868 -3.15269,0.245446 -0.48935,-0.02822 -1.0098,-0.07389 -1.15657,-0.101494 -0.26024,-0.04896 -0.28003,-0.04314 -0.8005,0.235044 -1.41371,0.755602 -2.6732,1.168617 -4.15899,1.363819 -0.6373,0.08373 -2.272491,0.03546 -2.805406,-0.08281 -1.389021,-0.308269 -2.577866,-0.957984 -3.362116,-1.837412 -0.190787,-0.213943 -0.522944,-0.570797 -0.738137,-0.793005 -0.830412,-0.857542 -1.156582,-1.516273 -1.478995,-2.987045 -0.0145,-0.06604 -0.05184,-0.120076 -0.08299,-0.120076 -0.03118,0 -0.36092,0.240994 -0.732774,0.535543 -2.777952,2.200411 -6.083351,3.832785 -10.095379,4.985598 -1.202202,0.345442 -2.376532,0.620451 -3.441682,0.805988 -1.503659,0.261922 -1.317051,0.304176 1.546582,0.350208 1.291796,0.02077 2.732964,0.05257 3.202594,0.07067 5.543608,0.213705 8.519264,0.364231 13.288374,0.672206 11.018569,0.71155 29.488201,2.299995 45.869531,3.944922 16.67049,1.673966 24.76419,2.102628 34.26098,1.81456 z M 50.766672,45.842084 c 2.875192,-0.190139 5.075225,-0.519961 7.284589,-1.092083 4.880671,-1.263861 8.743205,-3.254133 11.841787,-6.101813 2.261391,-2.078274 3.305869,-4.132783 3.302492,-6.496029 -0.0016,-0.868509 -0.103356,-1.561261 -0.340136,-2.30742 -0.780653,-2.460028 -2.797011,-4.556989 -6.112527,-6.356876 -0.659842,-0.358198 -2.313813,-1.133843 -2.754543,-1.291749 -0.202435,-0.07253 -0.255449,-0.144051 -0.133415,-0.179999 4.22995,-1.246144 7.7066,-3.036569 10.58001,-5.448556 2.574617,-2.161179 3.805319,-4.425165 3.552949,-6.536013 -0.16255,-1.3596389 -0.677935,-2.4113519 -1.707081,-3.4835789 -1.809046,-1.884764 -4.97958,-3.337045 -9.620183,-4.406592 -4.659995,-1.074012 -9.82377,-1.30580197 -14.933339,-0.670324 -5.150927,0.640623 -8.897553,1.894258 -12.293374,4.113411 -1.663945,1.08738 -2.709524,2.05204 -3.421678,3.15687 -0.541332,0.839816 -0.736722,1.4565619 -0.856007,2.7019699 -0.123703,1.291549 -0.0072,1.896801 0.542057,2.81717 0.300612,0.503679 1.059398,1.305103 1.539871,1.626397 1.292429,0.864251 2.856381,1.255184 5.016496,1.253948 3.019859,-0.0017 5.822986,-1.020263 8.298565,-3.015341 1.606537,-1.294714 2.67526,-2.82198 2.960412,-4.2306039 0.248346,-1.226813 -0.393547,-2.100077 -1.829215,-2.488537 -0.55515,-0.150211 -1.64281,-0.164539 -2.145172,-0.02825 -0.852881,0.23137 -1.720245,0.781569 -2.406939,1.526812 -0.673742,0.731186 -0.902567,1.4052779 -0.619804,1.8258799 0.177131,0.263468 0.327208,0.264902 0.460105,0.0044 0.223916,-0.438908 1.011835,-0.9410639 1.952918,-1.2446239 0.717935,-0.231582 1.469558,-0.139217 1.816838,0.223267 0.129665,0.135339 0.153932,0.204786 0.153932,0.4404769 0,0.232557 -0.04342,0.360723 -0.257313,0.758966 -0.721143,1.342923 -1.817607,2.351042 -3.363622,3.092619 -1.503433,0.72115 -2.976434,1.035178 -4.567085,0.97365 -1.701354,-0.06581 -2.921538,-0.521739 -3.491506,-1.304621 -0.276572,-0.379891 -0.526676,-1.17169 -0.52711,-1.668774 -0.0014,-1.584572 1.296815,-3.1634109 3.898389,-4.7411479 2.74234,-1.663076 6.175906,-2.790774 10.016602,-3.289761 3.176553,-0.412699 7.113477,-0.441572 10.27634,-0.07537 3.539951,0.409866 6.153886,1.182053 7.89831,2.333251 0.568904,0.375435 1.372958,1.146967 1.685926,1.617743 0.685884,1.031725 0.923578,2.1884719 0.662937,3.2261949 -0.700901,2.790436 -4.901691,6.045587 -10.273854,7.961114 -1.777942,0.63395 -3.519855,1.098865 -5.853376,1.562253 -1.165922,0.231527 -1.382265,0.289864 -1.577977,0.425492 -0.12474,0.08645 -0.226808,0.142981 -0.226808,0.12563 0,-0.04074 0.945027,-1.729203 1.564199,-2.794703 3.144209,-5.410742 5.665893,-8.8452669 7.924044,-10.7925299 0.272751,-0.235198 0.486931,-0.454589 0.475947,-0.487533 -0.01094,-0.03294 -0.158338,-0.0906 -0.32745,-0.128115 -0.513872,-0.114 -2.426736,-0.439291 -2.583244,-0.439291 -0.225115,0 -1.145664,0.303227 -1.774645,0.584571 -2.93182,1.311384 -5.890701,4.2363069 -8.829284,8.7279669 -0.326446,0.498981 -0.751291,1.171405 -0.944095,1.494275 -0.719604,1.205037 -2.958809,5.225335 -4.577505,8.218514 -1.591946,2.943716 -2.461141,4.4597 -3.885971,6.777607 -1.297459,2.110702 -2.311427,3.468661 -3.761718,5.037894 -1.184118,1.281231 -2.923319,2.744063 -4.137092,3.479686 l -0.292969,0.177558 -0.378681,-0.205355 c -1.42007,-0.770093 -3.011868,-2.07799 -3.934938,-3.233135 -1.407778,-1.761711 -2.0571,-4.001717 -1.809626,-6.242758 0.04019,-0.363937 0.04694,-0.618499 0.01717,-0.648259 -0.0619,-0.0619 -0.781162,0.173079 -1.215426,0.397082 -0.611687,0.315524 -1.434844,1.303075 -1.868493,2.24165 -0.303866,0.65768 -0.373632,0.988736 -0.367534,1.744037 0.0059,0.728667 0.07447,1.021575 0.477689,2.040055 0.758987,1.917086 2.212235,3.584421 4.338376,4.977486 0.301322,0.19743 0.538983,0.367839 0.528134,0.378689 -0.01086,0.01085 -0.354398,0.07105 -0.763445,0.133782 -0.867826,0.133093 -2.776914,0.162504 -3.545484,0.05463 -2.255398,-0.316575 -3.747051,-0.97389 -5.074623,-2.236193 -0.671639,-0.638616 -0.993839,-1.065666 -1.357715,-1.799539 -0.540113,-1.089318 -0.69578,-1.90787 -0.649499,-3.415311 0.04175,-1.359656 0.270319,-2.311987 0.815411,-3.397334 1.190778,-2.370977 3.536517,-4.207528 6.019441,-4.7128 1.07464,-0.218689 2.652518,-0.199295 3.61304,0.04442 1.445624,0.366784 2.491441,1.030354 3.986562,2.529471 0.536395,0.537829 0.998687,0.963395 1.027315,0.945701 0.07663,-0.04735 0.06277,-0.724398 -0.02701,-1.3201 -0.187598,-1.244575 -0.697504,-2.213741 -1.63319,-3.104168 -1.211098,-1.152516 -2.76988,-1.834621 -4.717476,-2.064313 -0.661408,-0.078 -2.124959,-0.03479 -2.776064,0.08197 -1.666061,0.298763 -3.843747,1.291301 -5.400766,2.461541 -2.93776,2.207986 -4.40621,5.418139 -4.268126,9.330463 0.08531,2.41697 0.866094,4.226743 2.645877,6.132826 0.296411,0.317445 0.538928,0.59771 0.538928,0.622811 0,0.09181 0.738944,0.596077 1.440908,0.983301 1.452323,0.801139 3.188981,1.411553 4.785848,1.682163 3.224361,0.546411 6.863979,0.350056 10.02969,-0.541098 0.436865,-0.122979 0.866348,-0.223747 0.954403,-0.223931 0.08806,-1.6e-4 0.594895,0.100379 1.126307,0.223469 2.265874,0.524843 4.979837,0.880385 7.812664,1.023499 1.170172,0.05911 5.177485,0.02753 6.350665,-0.05005 z m -7.818261,-2.723915 c -0.748834,-0.03802 -2.563612,-0.212672 -3.13531,-0.301754 -0.11007,-0.01715 -0.200126,-0.04945 -0.200126,-0.07178 0,-0.02232 0.160579,-0.141268 0.356844,-0.264325 0.865989,-0.542974 1.980732,-1.475145 3.214054,-2.687662 1.602513,-1.575477 3.105394,-3.487883 4.997068,-6.358735 1.786439,-2.711145 3.258153,-5.264206 5.891746,-10.220732 0.475681,-0.895232 0.883629,-1.647117 0.906576,-1.670859 0.023,-0.02374 0.03029,0.07553 0.01636,0.220587 -0.03467,0.361077 0.06164,0.613963 0.317318,0.832796 0.316005,0.270488 0.604365,0.346754 1.644292,0.434897 2.395729,0.203055 4.038433,0.600026 5.496806,1.328352 2.10276,1.050138 3.356348,2.681803 3.791075,4.934487 0.636287,3.297225 -0.842206,6.134842 -4.591015,8.811337 -1.773908,1.266497 -4.608835,2.678187 -6.896462,3.434182 -3.425085,1.131894 -8.156513,1.764607 -11.809229,1.579199 z m 2.801769,-1.06713 c 4.991123,-0.254393 9.218764,-1.3504 12.880887,-3.339333 4.314992,-2.343512 6.54642,-4.905926 6.688219,-7.680254 0.07282,-1.42435 -0.480711,-3.277999 -1.162852,-3.894279 -0.942767,-0.851721 -2.808189,-1.56104 -4.904413,-1.864874 -0.308196,-0.04468 -0.984352,-0.11665 -1.502566,-0.159953 -0.697191,-0.05826 -1.04349,-0.112695 -1.331599,-0.209322 -0.214148,-0.07182 -0.416907,-0.120018 -0.450571,-0.107098 -0.0337,0.01292 -0.176863,0.244458 -0.318208,0.514528 -4.006236,7.655063 -7.32526,12.722432 -10.487354,16.011738 -0.511221,0.531791 -0.641161,0.695469 -0.581884,0.73298 0.04197,0.02656 0.08833,0.04844 0.102999,0.0486 0.01467,1.59e-4 0.494978,-0.02356 1.067342,-0.05274 z m 108.75085,-3.916175 c 0.46229,-0.234265 0.49289,-0.278217 0.65695,-0.943523 0.1736,-0.703949 0.17815,-0.74314 0.0862,-0.74314 -0.07,0 -1.10571,1.641742 -1.10571,1.752848 0,0.09106 0.0816,0.07616 0.36252,-0.06619 z M 99.689148,36.568277 c 2.045712,-2.254774 2.627042,-2.949491 3.011432,-3.598785 0.46887,-0.791963 1.08629,-2.073396 1.39667,-2.898646 0.44821,-1.191776 0.91006,-2.963426 0.80097,-3.072519 -0.0409,-0.04094 -0.17788,0.0028 -0.47768,0.152557 -0.23118,0.115467 -0.54638,0.251266 -0.70048,0.301775 -0.15409,0.05051 -0.28018,0.121649 -0.28018,0.15809 0,0.03644 0.0384,0.179339 0.0856,0.317556 0.0588,0.172385 0.0797,0.380662 0.0664,0.663251 -0.0173,0.369202 -0.048,0.470101 -0.29592,0.972305 -0.43798,0.88694 -1.78157,3.177416 -4.144122,7.064663 -0.28327,0.466074 -0.51503,0.868328 -0.51503,0.893896 0,0.157589 0.24612,-0.06557 1.05229,-0.954143 z m 2.203092,-11.029765 c 1.42349,-0.257731 2.69963,-1.268191 3.97234,-3.145352 1.00666,-1.484732 1.28986,-2.723996 0.76035,-3.327072 -0.2321,-0.264359 -0.43618,-0.335723 -0.96006,-0.335723 -1.05967,0 -2.02603,0.456566 -3.04454,1.438405 -0.73433,0.7079 -1.59421,1.852934 -2.01398,2.681881 -0.57182,1.129192 -0.58295,2.203654 -0.0264,2.547625 0.34333,0.21219 0.70274,0.250598 1.31229,0.140236 z m 56.24878,-0.06549 c 1.23173,-0.315383 2.48914,-1.38413 3.65075,-3.102976 0.66309,-0.981169 0.9399,-1.64945 0.97921,-2.363992 0.0305,-0.555593 -0.0761,-0.855129 -0.38996,-1.094693 -0.18535,-0.141496 -0.24517,-0.155819 -0.72012,-0.172447 -0.64033,-0.02241 -1.0246,0.0663 -1.67871,0.387559 -0.52197,0.256362 -1.00801,0.604923 -1.46759,1.052478 -1.10428,1.075395 -2.17232,2.748737 -2.37987,3.728652 -0.19178,0.905472 0.0945,1.519494 0.7738,1.659369 0.24306,0.05004 0.85114,0.0037 1.23249,-0.09395 z M 60.110994,18.78884 c 1.755918,-0.460363 3.914001,-1.270201 5.496539,-2.062616 1.868589,-0.935647 3.608971,-2.155357 4.85501,-3.402519 1.156405,-1.157465 1.705204,-2.154376 1.703657,-3.09479 -5.92e-4,-0.4723969 -0.09831,-0.8530749 -0.348154,-1.3588889 -0.170862,-0.345937 -0.235694,-0.419063 -0.601782,-0.678883 -0.612603,-0.434763 -1.58359,-0.896468 -2.571661,-1.222821 -1.053842,-0.348078 -2.376831,-0.665124 -2.453895,-0.588058 -0.03467,0.03474 -0.01928,0.143155 0.04544,0.317711 0.08258,0.222846 0.136339,0.28364 0.338256,0.382422 0.472036,0.230936 0.728968,0.691265 0.661317,1.18485 -0.04965,0.362226 -0.172798,0.520687 -0.845179,1.087537 -1.558375,1.3137729 -3.265847,3.4049139 -5.173235,6.3356599 -0.580089,0.891313 -1.7467,2.772102 -1.879532,3.030144 -0.09896,0.19222 -0.07241,0.29685 0.06553,0.25772 0.04892,-0.01389 0.367368,-0.09824 0.707713,-0.187468 z M 44.709522,13.767833 c 0.951202,-0.202888 2.268092,-0.706686 2.268092,-0.867696 0,-0.04046 -0.0746,-0.144073 -0.165791,-0.230283 -0.09118,-0.08621 -0.237095,-0.28199 -0.324251,-0.435071 -0.08716,-0.15308 -0.238367,-0.327714 -0.336037,-0.388075 -0.4808,-0.297153 -0.782023,-0.810773 -0.816796,-1.392761 -0.03864,-0.6460619 0.206963,-1.3186219 0.704481,-1.9293769 0.424027,-0.520532 0.328447,-0.53733 -0.550484,-0.09674 -1.742923,0.873702 -3.264243,1.9543889 -4.02295,2.8577519 -0.62173,0.740271 -0.921281,1.627186 -0.715618,2.118827 0.07298,0.174468 0.118897,0.208114 0.393298,0.28821 0.616125,0.179845 1.134501,0.231733 2.098464,0.210049 0.685336,-0.01543 1.075969,-0.05131 1.467592,-0.134835 z M 55.987487,8.8600231 c 1.166043,-1.069326 2.357051,-1.894293 3.648944,-2.527506 0.490269,-0.240301 0.892523,-0.465458 0.8939,-0.50035 0.004,-0.116682 -0.485838,-0.139008 -2.343314,-0.106671 -2.019241,0.03515 -2.695558,0.07926 -4.298378,0.280342 -1.887584,0.236803 -2.049219,0.306238 -1.334597,0.573299 0.55545,0.207577 1.164489,0.626992 1.434761,0.988057 0.121023,0.161673 0.41498,0.488106 0.653225,0.725407 0.249148,0.248152 0.493258,0.550485 0.574598,0.711631 0.0797,0.158013 0.177738,0.280177 0.224742,0.280177 0.04585,0 0.291584,-0.190974 0.546119,-0.424386 z"
     style="fill:#23a351;stroke-width:0.05336698" />
</svg>
